<svg xmlns="http://www.w3.org/2000/svg" viewBox="0 0 344.62 60.8"><title>Asset 1</title><path d="M32.66,60.8c-.26-.19-.53-.36-.79-.54Q16.26,48.82.63,37.38C0,36.91-.28,36.66.4,35.91Q16.26,18.21,32,.44c.72-.81,1-.34,1.4.14l30.23,34c.63.71,1.84,1.41,1.68,2.16s-1.37,1.22-2.14,1.78L33.57,60.16ZM30.2,52.68c.39-.36.22-.83.22-1.25q0-19.86,0-39.74c0-.42.15-.88-.19-1.26-.09-.16-.17-.35-.3,0-2.08,2.31-4.18,4.6-6.26,6.92-5.32,6-10.62,11.94-16,17.89-.57.63-.46.9.17,1.32,1,.67,1.94,1.41,2.91,2.11l19.15,14Zm5,0a1.15,1.15,0,0,0,.32-.14q11-8,21.95-16.05c.68-.49.51-.76.06-1.27q-11.15-12.47-22.26-25c-.55.2-.3.68-.3,1q0,20.3,0,40.58C35,52.11,34.77,52.51,35.24,52.66Z" fill="#033499"/><path d="M344.59,30.37c.54,8-6.47,18-18,18A18.21,18.21,0,0,1,326.49,12C337.12,12,345.12,20.84,344.59,30.37ZM326.12,44.8a14.27,14.27,0,0,0,14.81-14.44c.06-7.42-4.93-14.75-14.51-14.81-7.2,0-14,4.71-14.36,14.23A14.15,14.15,0,0,0,326.12,44.8Z" fill="#5e5e5e"/><path d="M241.7,30.12c0-5.48,0-11,0-16.44,0-.91.21-1.26,1.18-1.24,3.92.08,7.84-.13,11.75.13a18,18,0,0,1,16,13c2.72,10.39-3.73,19.49-13.47,21.84a17.78,17.78,0,0,1-4.49.51c-3.16,0-6.32-.07-9.47,0-1.16,0-1.56-.19-1.54-1.47C241.75,41,241.7,35.56,241.7,30.12ZM245.53,44c0,.15,0,.23.19.22,2.83,0,5.69.23,8.5,0,9.07-.83,14.76-8.41,12.85-17.31-1.19-5.53-4.91-9-10.31-10.39-3.5-.94-7.14-.48-10.72-.54-.64,0-.54.45-.54.83Z" fill="#5d5d5d"/><path d="M79.44,47.88q0-9.63,0-19.25c0-5.35,0-10.69,0-16l.19-.21q11.7,0,23.39-.05c.6,0,.71.21.73.76.13,2.84.14,2.84-2.63,2.84-5.59,0-11.19,0-16.79,0-.86,0-1.15.16-1.13,1.09.07,3.2.06,6.4,0,9.59,0,.88.17,1.14,1.1,1.13,4.71-.05,9.43,0,14.15,0,1,0,1.31.18,1.27,1.22-.07,2.38,0,2.39-2.37,2.39-4.31,0-8.63,0-13,0-.87,0-1.23.12-1.21,1.13.07,3.72,0,7.44,0,11.16,0,.79.22,1,1,1,6.32,0,12.64,0,19,0,.88,0,1.16.18,1.15,1.1,0,2.51,0,2.51-2.48,2.51l-22.19,0Z" fill="#333"/><path d="M306.19,47.83c-1.41,0-2.84.39-3.82-.11s-1.05-2-1.51-3.13c-.81-1.92-1.61-3.83-2.36-5.76a1.1,1.1,0,0,0-1.23-.82q-7.42,0-14.87,0a1.17,1.17,0,0,0-1.31.88c-1,2.63-2.19,5.22-3.19,7.87a1.43,1.43,0,0,1-1.75,1.13,7.26,7.26,0,0,0-1.68,0c-1,.09-1.05-.22-.69-1.06q2.94-7,5.82-14c2.64-6.37,5.3-12.74,7.9-19.13a1.65,1.65,0,0,1,1.85-1.21c2.77.07,2-.44,3,2,4.49,10.75,8.92,21.52,13.38,32.29C305.91,47.08,306,47.42,306.19,47.83Zm-16.39-30c-2.22,5.44-4.31,10.61-6.45,15.76-.34.81-.14.93.64.93,4,0,8.07,0,12.11,0,.13,0,.33.06.42-.26Z" fill="#5e5e5e"/><path d="M179.22,27.08c0-4.71,0-9.18,0-13.65,0-.9.22-1.13,1.12-1.11,2.47,0,2.47,0,2.47,2.51q0,16.06,0,32.13c0,.93-.22,1.21-1.17,1.19-2.4-.07-2.41,0-2.42-2.43v-1c-.38.37-.66.62-.92.87a10.29,10.29,0,0,1-9.41,2.94,11.45,11.45,0,0,1-8.58-6.59,13.43,13.43,0,0,1-.15-11.8A11.35,11.35,0,0,1,179.22,27.08Zm-8.14-.58a7.69,7.69,0,0,0-7.24,4.13,10,10,0,0,0-.49,9.46,7.88,7.88,0,0,0,6.56,5.12c3.31.4,5.8-1.13,7.62-3.79A10.31,10.31,0,0,0,179,34.29C178.64,30.14,174.49,26.12,171.08,26.5Z" fill="#353535"/><path d="M155.23,35.81c0,7.3-5.27,12.74-12.26,12.82a12.76,12.76,0,0,1,0-25.52C150,23.12,155.23,28.58,155.23,35.81Zm-21.1.15a6.58,6.58,0,0,0,.51,3.08c1.45,4.37,6.07,7,10.07,6.09a9.47,9.47,0,0,0,6.87-11.51,8.72,8.72,0,0,0-11.11-6.8C137.09,27.71,134,31.6,134.13,36Z" fill="#363636"/><path d="M207.53,45.16a9.48,9.48,0,0,1-9.21,3.31c-3.77-.6-6.15-2.92-7.53-6.39a11.86,11.86,0,0,1-.69-4.32c0-4.36,0-8.72,0-13.07,0-1,.31-1.11,1.16-1.1,2.43,0,2.43,0,2.43,2.41,0,4.12-.06,8.24,0,12.36a6.93,6.93,0,0,0,4,6.31,7.1,7.1,0,0,0,8.24-1.85,8.77,8.77,0,0,0,1.93-5.66c0-4.12,0-8.24,0-12.36,0-.88.14-1.25,1.15-1.22,2.43.07,2.43,0,2.43,2.42,0,7,0,14.07,0,21.1,0,.86-.23,1.06-1.06,1-2.52,0-2.52,0-2.53-2.56V45.1C207.68,44.9,207.59,45,207.53,45.16Z" fill="#343434"/><path d="M107,23.61c1.45,0,2.64,0,3.82,0,.57,0,.75.38,1,.73,1.68,2.37,3.39,4.74,5,7.14.56.83.89,1,1.53,0,1.6-2.39,3.32-4.69,4.94-7.07a1.67,1.67,0,0,1,1.67-.85c1,.07,2,0,3,0,.16.47-.22.69-.4.95-2.33,3.29-4.66,6.59-7,9.85a1.29,1.29,0,0,0,0,1.83c2.57,3.51,5.07,7.07,7.6,10.62.25.35.48.71.85,1.26h-3.94c-.5,0-.63-.44-.85-.75-2.16-3-4.31-6-6.55-9.19-.57.79-1.1,1.51-1.62,2.24-1.65,2.31-3.31,4.61-4.92,6.94a1.5,1.5,0,0,1-1.46.78c-1.06-.07-2.13,0-3.38,0l1.23-1.78c2.44-3.42,4.87-6.84,7.33-10.23a1.1,1.1,0,0,0,0-1.54C112.27,31,109.74,27.43,107,23.61Z" fill="#363636"/><path d="M231,29a7,7,0,0,0-6-2.52,4.38,4.38,0,0,0-3.92,2.67A2.51,2.51,0,0,0,222,32a7.52,7.52,0,0,0,2.75,1.42c1.57.54,3.18,1,4.73,1.58,2.44.94,4.36,2.44,4.67,5.25a6.73,6.73,0,0,1-3.25,6.86,11.27,11.27,0,0,1-13.79-2c-.61-.66-.58-1.09.1-1.64s1-1.37,1.64-1.51,1.05.89,1.59,1.36A7.38,7.38,0,0,0,227.6,45a3.73,3.73,0,0,0,3-3.31c.14-1.68-.52-2.78-2.41-3.57-1.54-.65-3.15-1.12-4.74-1.65a15.62,15.62,0,0,1-2.85-1.23c-3.6-2.09-4.32-6.22-1.53-9.32,2.61-2.92,5.94-3.3,9.54-2.37a11,11,0,0,1,4.28,2.33c.47.39.47.69,0,1.11C232.26,27.61,231.67,28.31,231,29Z" fill="#363636"/><path d="M79.63,12.39l-.19.21C79.4,12.44,79.46,12.36,79.63,12.39Z" fill="#454545"/><path d="M207.53,45.16c.06-.2.15-.26.3-.06Z" fill="#696969"/><path d="M79.44,47.88l.19.2C79.47,48.11,79.4,48.05,79.44,47.88Z" fill="#454545"/><path d="M35.31,10.25c0,.32-.07.63-.07.95V52.66c-.47-.15-.23-.55-.23-.81q0-20.28,0-40.58C35,10.93,34.76,10.45,35.31,10.25Z" fill="#5881d0"/><path d="M29.94,52.61q0-21.1,0-42.21c.13-.32.21-.13.3,0s0,.32,0,.48V52.68Z" fill="#cbe4fe"/><path d="M30.2,52.68V10.91c0-.16,0-.32,0-.48.34.38.19.84.19,1.26q0,19.88,0,39.74C30.42,51.85,30.59,52.32,30.2,52.68Z" fill="#173162"/><path d="M245.53,44l.19.22C245.55,44.27,245.49,44.19,245.53,44Z" fill="#e2e2e2"/></svg>