<?xml version="1.0" encoding="UTF-8"?>
<!DOCTYPE svg PUBLIC "-//W3C//DTD SVG 1.1//EN" "http://www.w3.org/Graphics/SVG/1.1/DTD/svg11.dtd">
<!-- Creator: CorelDRAW X7 -->
<svg xmlns="http://www.w3.org/2000/svg" xml:space="preserve" width="3364px" height="2059px" version="1.1" style="shape-rendering:geometricPrecision; text-rendering:geometricPrecision; image-rendering:optimizeQuality; fill-rule:evenodd; clip-rule:evenodd"
viewBox="0 0 1571 962"
 xmlns:xlink="http://www.w3.org/1999/xlink">
 <defs>
  <style type="text/css">
   <![CDATA[
    .fil0 {fill:white;fill-rule:nonzero}
   ]]>
  </style>
 </defs>
 <g id="Layer_x0020_1">
  <metadata id="CorelCorpID_0Corel-Layer"/>
  <path class="fil0" d="M500 321l267 -300 19 -21 19 21 266 300 19 20 -23 17 -266 195 -15 11 -15 -11 -267 -195 -22 -17 18 -20zm892 597c5,9 12,16 21,22 15,11 38,22 69,22 56,0 89,-34 89,-75 0,-87 -133,-59 -133,-113 0,-18 18,-36 46,-36 18,0 31,7 41,13 5,4 9,8 13,13l26 -26c-6,-6 -13,-12 -21,-16 -14,-9 -33,-17 -59,-17 -49,0 -82,34 -82,69 0,85 133,57 133,113 0,23 -17,41 -53,41 -21,0 -37,-8 -48,-18 -6,-5 -12,-11 -17,-18l-25 26zm-268 -64c0,64 44,108 100,108 27,0 47,-10 60,-19 8,-6 15,-13 20,-20l0 33 36 0 0 -246 -36 0 0 136c0,49 -33,82 -75,82 -38,0 -69,-31 -69,-74l0 -144 -36 0 0 144zm-111 102l36 0 0 -359 -36 0 0 149c-5,-8 -13,-15 -21,-21 -14,-10 -35,-20 -64,-20 -66,0 -120,54 -120,128 0,75 54,129 120,129 29,0 50,-11 64,-21 8,-6 16,-13 21,-20l0 35zm-85 -28c-46,0 -84,-39 -84,-95 0,-56 38,-95 84,-95 44,0 85,41 85,95 0,54 -41,95 -85,95zm-282 34c69,0 125,-57 125,-129 0,-72 -56,-128 -125,-128 -70,0 -126,56 -126,128 0,72 56,129 126,129zm0 -34c-49,0 -90,-41 -90,-95 0,-54 41,-95 90,-95 48,0 89,41 89,95 0,54 -41,95 -89,95zm-373 28l43 0 72 -100 72 100 44 0 -93 -128 85 -118 -44 0 -64 90 -64 -90 -44 0 85 118 -92 128zm-273 0l252 0 0 -35 -213 0 0 -134 166 0 0 -36 -166 0 0 -118 208 0 0 -36 -247 0 0 359zm811 -852l0 379 204 -150 -204 -229zm-51 379l0 -379 -204 229 204 150z"/>
 </g>
</svg>
